<svg width="25" height="25" viewBox="0 0 25 25" fill="none" xmlns="http://www.w3.org/2000/svg">
<path d="M22.4302 6.23045C22.446 6.50387 22.446 6.77735 22.446 7.05078C22.446 15.3906 17.2906 25 7.86802 25C4.96509 25 2.26841 23.9648 0 22.168C0.412451 22.2266 0.808984 22.2461 1.2373 22.2461C3.63257 22.2461 5.83755 21.25 7.59834 19.5508C5.3458 19.4922 3.45811 17.6758 2.80771 15.1758C3.125 15.2343 3.44224 15.2734 3.77539 15.2734C4.2354 15.2734 4.69546 15.1953 5.12373 15.0586C2.77603 14.4726 1.01519 11.9336 1.01519 8.86718V8.78908C1.69727 9.25783 2.49048 9.5508 3.33115 9.58981C1.95107 8.45698 1.04692 6.52341 1.04692 4.33589C1.04692 3.16404 1.30068 2.08982 1.74487 1.15231C4.26709 4.98044 8.05835 7.48039 12.3096 7.75388C12.2303 7.28513 12.1827 6.79689 12.1827 6.3086C12.1827 2.832 14.4669 0 17.3064 0C18.7816 0 20.1141 0.761717 21.05 1.99219C22.208 1.71876 23.3184 1.19139 24.302 0.468753C23.9212 1.93363 23.1122 3.1641 22.0494 3.9453C23.0805 3.80864 24.0799 3.457 24.9999 2.96877C24.3021 4.21872 23.4295 5.33196 22.4302 6.23045Z" fill="#DFDDE0"/>
</svg>
